# xmcd
#
# Track frame offsets:
#	150
#	12597
#	31121
#	43331
#	59321
#	77735
#	93254
#	109460
#	129404
#	154266
#	167435
#	206218
#	222302
#	243664
#	270183
#	285797
#
# Disc length: 4047 seconds
#
# Revision: 0
# Processed by: cddbd v1.5.2PL0 Copyright (c) Steve Scherf et al.
# Submitted via: EZCDAudioConverter 1.3.4.1
#
DISCID=db0fcd10
DTITLE=V/A - Dark Was The Night 2/2
DYEAR=2009
DGENRE=
TTITLE0=Spoon - Well-Alright
TTITLE1=Arcade Fire - Lenin
TTITLE2=Beirut - Mimizan
TTITLE3=My Morning Jacket - El Caporal
TTITLE4=Sharon Jones and The Dap-Kings - Inspiration Information
TTITLE5=Dave Sitek - With A Girl Like You
TTITLE6=Buck 65 Remix featuring Sufjan Stevens and Serengeti - Blood (Part 2)
TTITLE7=New Pornographers - Hey, Snow White
TTITLE8=Yo La Tengo - Gentle Hour
TTITLE9=Stuart Murdoch - Another Saturday
TTITLE10=Riceboy Sleeps - Happiness
TTITLE11=Cat Power and Dirty Delta Blues - Amazing Grace
TTITLE12=Andrew Bird - The Giant Of Illinois
TTITLE13=Conor Oberst and Gillian Welch - Lua
TTITLE14=Blonde Redhead and Devastations - When The Road Runs Out
TTITLE15=Kevin Drew - Love Vs. Porn
EXTD=
EXTT0=
EXTT1=
EXTT2=
EXTT3=
EXTT4=
EXTT5=
EXTT6=
EXTT7=
EXTT8=
EXTT9=
EXTT10=
EXTT11=
EXTT12=
EXTT13=
EXTT14=
EXTT15=
PLAYORDER=
